<?xml version="1.0" standalone="no"?>
<!DOCTYPE svg PUBLIC "-//W3C//DTD SVG 1.1//EN" "http://www.w3.org/Graphics/SVG/1.1/DTD/svg11.dtd" >
<!--
2013-9-30: Created.
-->
<svg>
<metadata>
Created by iconfont
</metadata>
<defs>

<font id="iconfont" horiz-adv-x="1024" >
  <font-face
    font-family="iconfont"
    font-weight="500"
    font-stretch="normal"
    units-per-em="1024"
    ascent="896"
    descent="-128"
  />
    <missing-glyph />
    
    <glyph glyph-name="yinxingqia" unicode="&#58933;" d="M876.930433 650.704294 145.831366 650.704294c-44.864814 0-81.57183-36.707017-81.57183-81.57183l0-27.203572 894.242727 0L958.502263 569.132464C958.502263 613.997278 921.794224 650.704294 876.930433 650.704294zM64.259536 427.927465l0-229.059929c0-44.864814 36.707017-81.57183 81.57183-81.57183l731.099067 0c44.864814 0 81.57183 36.707017 81.57183 81.57183L958.502263 427.927465 64.259536 427.927465zM731.328287 215.325369l-16.372899 110.517069 141.216255 0 16.372899-110.517069L731.328287 215.325369z"  horiz-adv-x="1024" />

    
    <glyph glyph-name="kaiguan3" unicode="&#59098;" d="M764.867148 646.206864 259.0735 646.206864c-143.070486 0-259.052011-115.984594-259.052011-259.052011 0-143.07151 115.982548-259.050987 259.052011-259.050987l505.793648 0c143.067416 0 259.050987 115.979478 259.050987 259.050987C1023.917112 530.221246 907.933541 646.206864 764.867148 646.206864zM259.0735 150.483572c-130.501216 0-236.671281 106.172111-236.671281 236.671281 0 130.501216 106.170065 236.671281 236.671281 236.671281S495.744781 517.655046 495.744781 387.15383C495.744781 256.65466 389.574716 150.483572 259.0735 150.483572z"  horiz-adv-x="1024" />

    
    <glyph glyph-name="kaiguan4" unicode="&#59099;" d="M764.904497 644.581854 259.086289 644.581854c-143.076626 0-259.065314-115.989711-259.065314-259.065314 0-143.077649 115.988688-259.063267 259.065314-259.063267l505.818207 0c143.074579 0 259.063267 115.985618 259.063267 259.063267C1023.967764 528.592143 907.980099 644.581854 764.904497 644.581854zM764.904497 148.835026c-130.507356 0-236.682537 106.175181-236.682537 236.682537S634.397141 622.201124 764.904497 622.201124s236.683561-106.176205 236.683561-236.683561S895.411853 148.835026 764.904497 148.835026z"  horiz-adv-x="1024" />

    
    <glyph glyph-name="z-weixin" unicode="&#59081;" d="M315.828 579.305c-9.556 0-19.058-3.888-25.753-10.635-6.693-6.746-10.635-16.143-10.635-25.753 0-9.501 3.883-19.005 10.635-25.753 6.748-6.639 16.197-10.582 25.753-10.582 9.504 0 19.008 3.943 25.698 10.635 6.748 6.748 10.637 16.249 10.637 25.699 0 9.61-3.89 19.006-10.637 25.753-6.69 6.748-16.194 10.635-25.698 10.635v0zM591.231 383.326c-7.453 0-14.852-3.076-20.139-8.316-5.293-5.234-8.373-12.634-8.373-20.137 0-7.505 3.080-14.846 8.318-20.139 5.234-5.29 12.739-8.314 20.192-8.314 7.451 0 14.844 3.078 20.139 8.314 5.286 5.238 8.31 12.634 8.31 20.139 0 7.503-3.076 14.848-8.31 20.137-5.242 5.293-12.745 8.316-20.138 8.316v0zM501.39 506.584c9.501 0 19.005 3.943 25.757 10.635 6.691 6.748 10.581 16.249 10.581 25.753 0 9.61-3.89 19.007-10.581 25.753-6.807 6.694-16.309 10.582-25.757 10.582-9.556 0-19.003-3.888-25.754-10.635-6.748-6.746-10.635-16.143-10.635-25.753 0-9.501 3.888-19.005 10.635-25.753 6.751-6.639 16.197-10.582 25.754-10.582v0zM803.84 815.942h-583.736c-77.314 0-139.941-62.844-139.941-140.426v-583.031c0-77.585 62.627-140.427 139.941-140.427l583.788-0c77.316 0 139.943 62.841 139.943 140.427v583.031c-0.054 77.583-62.686 140.426-139.995 140.426v0zM404.264 237.176c-32.663 0-59.013 6.693-91.732 13.119l-91.508-45.891 26.186 78.769c-65.544 45.839-104.741 104.847-104.741 176.708 0 124.666 117.914 222.707 261.849 222.707 128.763 0 241.547-78.335 264.169-183.887-8.312 0.972-16.735 1.565-25.213 1.565-124.39 0-222.597-92.863-222.597-207.209 0-19.113 2.968-37.361 8.042-54.907-8.097-0.539-16.248-0.973-24.455-0.973v0zM790.449 145.449l19.705-65.382-71.803 39.355c-26.184-6.586-52.53-13.171-78.606-13.171-124.558 0-222.654 85.14-222.654 190.041 0 104.687 98.097 190.046 222.654 190.046 117.692 0 222.433-85.306 222.433-190.046 0-59.116-39.141-111.381-91.728-150.844v0zM733.87 383.326c-7.451 0-14.85-3.076-20.139-8.316-5.295-5.234-8.318-12.634-8.318-20.137 0-7.505 3.082-14.846 8.318-20.139 5.234-5.29 12.687-8.314 20.139-8.314s14.844 3.078 20.137 8.314c5.29 5.238 8.312 12.634 8.312 20.139 0 7.503-3.076 14.848-8.312 20.137-5.234 5.293-12.686 8.316-20.137 8.316v0zM733.87 383.326z"  horiz-adv-x="1024" />

    
    <glyph glyph-name="big-Pay" unicode="&#59116;" d="M991.67 206.552v472.296c0 101.81-82.623 184.433-184.493 184.433h-590.414c-101.81 0-184.433-82.623-184.433-184.433v-590.414c0-101.81 82.563-184.433 184.433-184.433h590.414c90.717 0 166.206 65.595 181.615 151.876-48.926 21.165-260.941 112.722-371.385 165.427-84.062-101.81-172.082-162.908-304.771-162.908s-221.248 81.724-210.636 181.735c7.015 65.655 52.044 172.981 247.629 154.574 103.069-9.653 150.257-28.9 234.319-56.661 21.765 39.873 39.813 83.763 53.543 130.47h-372.764v36.935h184.433v66.314h-224.965v40.652h224.965v95.694c0 0 2.039 14.99 18.587 14.99h92.216v-110.684h239.835v-40.652h-239.835v-66.314h195.646c-17.988-73.209-45.269-140.483-79.446-199.243 56.841-20.566 315.503-99.652 315.503-99.652v0 0zM297.947 121.71c-140.183 0-162.368 88.499-154.933 125.494 7.375 36.815 47.967 84.842 125.914 84.842 89.578 0 169.803-22.904 266.097-69.792-67.633-88.079-150.736-140.543-237.077-140.543v0z"  horiz-adv-x="1024" />

    
    <glyph glyph-name="yonghu" unicode="&#58947;" d="M512.010745-126.082324c-282.335297 0-511.220241 228.798986-511.220241 511.036046C0.790504 667.201014 229.675448 896 512.010745 896c282.312784 0 511.198751-228.798986 511.198751-511.046279C1023.208473 102.714615 794.322505-126.082324 512.010745-126.082324zM512.010745 800.173514c-229.385341 0-415.371242-185.884594-415.371242-415.220816 0-107.22714 41.021276-204.6551 107.802238-278.339286 60.140729 29.092595 38.062897 4.88424 116.77254 37.274952 80.539314 33.089629 99.610672 44.639686 99.610672 44.639686l0.776689 76.29464c0 0-30.169113 22.890336-39.543621 94.683453-18.895349-5.426593-25.108864 21.988804-26.237571 39.429011-1.001817 16.863063-10.926864 69.487607 12.105712 64.739467-4.714372 35.144428-8.094352 66.844407-6.417153 83.633792 5.763261 58.938344 62.97324 120.518864 151.105486 125.017318 103.665011-4.486174 144.737452-66.028832 150.500713-124.9682 1.680269-16.800641-2.028193-48.511877-6.739495-83.594907 23.025413 4.686742 13.028735-47.861054 11.901051-64.726164-1.028423-17.440208-7.394411-44.756343-26.208918-39.34203-9.42158-71.79107-39.593763-94.498234-39.593763-94.498234l0.725524-75.924203c0 0 19.070334-10.788717 99.609649-43.892673 78.70862-32.387641 56.605206-9.609869 116.77561-38.765909 66.75231 73.686233 107.772562 171.101913 107.772562 278.339286C927.356404 614.287897 741.398132 800.173514 512.010745 800.173514z"  horiz-adv-x="1024" />

    
    <glyph glyph-name="Group" unicode="&#58882;" d="M446.431617 598.4273499999999a360.167932 360.167932 0 0 0-0.087521 0.2013C417.27825 699.02441 379.320232 769.531624 332.461292 810.141538V834.735043h350.08547v-24.593505c-53.886906-59.251966-91.809915-129.759179-113.777777-211.512888l-0.052513-0.2013H446.431617zM489.999754 42.84170900000004V-5.47008500000004h35.008547v47.725401c14.003419 1.470359 26.361436 5.058735 37.100308 10.765128 14.45853 7.70188 25.888821 18.913368 34.290871 33.660718 8.402051 14.738598 12.603077 31.08759 12.603077 49.038223 0 18.090667-3.982222 33.651966-11.955419 46.683897-7.981949 13.040684-19.806085 23.543248-35.47241 31.516444-10.257504 5.128752-28.068103 11.185231-53.423043 18.169436-25.923829 7.115487-42.587897 14.169709-50.000957 21.153915-7.404308 6.975453-11.115214 16.804103-11.115213 29.485949 0 13.670838 5.067487 24.82106 15.176205 33.433162 10.11747 8.620855 24.786051 12.935658 44.023248 12.935658 18.939624 0 33.651966-4.918701 44.119521-14.74735 10.467556-9.82865 16.559043-24.926085 18.265709-45.30106l32.697983 2.993231c-0.568889 19.08841-4.813675 35.682462-12.716855 49.782154a80.48465 80.48465 0 0 1-33.328136 32.479179c-9.119726 4.813675-19.21094 8.086974-30.264889 9.837402V414.632479h-35.008547v-49.860923c-20.768821-2.476855-37.791726-10.24-51.07747-23.280684-16.384-16.103932-24.576-36.828991-24.576-62.183932 0-14.099692 2.853197-26.74653 8.550837-37.923008a75.355897 75.355897 0 0 1 23.928342-27.674257c10.257504-7.264274 27.499214-14.45853 51.716376-21.582769 27.201641-7.973197 44.898462-14.178462 53.099214-18.589538 8.183248-4.411077 14.309744-10.073709 18.379487-16.979146 4.052239-6.914188 6.082735-15.001162 6.082735-24.260923 0-15.806359-5.592615-28.663248-16.777846-38.570667-11.176479-9.889915-26.886564-14.843624-47.112752-14.843623-14.099692 0-26.781538 2.914462-38.036786 8.752136-11.246496 5.846427-19.902359 13.574564-25.958838 23.193163-6.056479 9.609846-9.933675 23.035624-11.640342 40.277333l-32.059077-3.422085c0.717675-32.619214 10.502564-58.473026 29.380923-77.561436 14.764855-14.931145 33.459419-24.015863 56.101197-27.271658zM569.381634 563.418803c183.357265-115.624479 394.878906-523.727863 314.761846-682.666666-773.618872-4.46359 31.516444-2.573128-741.393504 0-86.38359 171.366838 119.064068 568.136205 303.392821 682.666666h123.247589zM384.974113 896h245.059829v-61.264957H384.974113z"  horiz-adv-x="1024" />

    
    <glyph glyph-name="changecny" unicode="&#58884;" d="M262.208 63.936000000000035l-74.304 74.368c-165.184 165.12-165.184 363.392 0 594.624-66.112-132.096-16.512-280.768 148.672-446.016l74.304-74.304 100.864 100.864v-350.4H161.344l100.864 100.864z m499.584 603.2l74.304-74.368c165.184-165.12 165.184-363.392 0-594.688 66.112 132.16 16.512 280.832-148.672 446.08L613.12 518.4 512.256 417.664V768h350.4l-100.864-100.864z"  horiz-adv-x="1024" />

    
    <glyph glyph-name="cion" unicode="&#58889;" d="M512 697.6v-134.4c0-49.472-100.288-89.6-224-89.6S64 513.7280000000001 64 563.2V697.6c0-49.472 100.288-89.6 224-89.6S512 648.1279999999999 512 697.6z m-224-44.8C164.288 652.8 64 692.928 64 742.4 64 791.872 164.288 832 288 832S512 791.872 512 742.4c0-49.472-100.288-89.6-224-89.6zM512 518.4V384c0-49.472-100.288-89.6-224-89.6S64 334.528 64 384V518.4c0-49.472 100.288-89.6 224-89.6S512 468.928 512 518.4zM512 339.20000000000005v-134.4c0-49.472-100.288-89.6-224-89.6S64 155.32799999999997 64 204.79999999999995V339.20000000000005c0-49.472 100.288-89.6 224-89.6S512 289.72799999999995 512 339.20000000000005zM512 147.20000000000005v-134.4c0-49.472-100.288-89.6-224-89.6S64-36.672000000000025 64 12.799999999999955v134.4c0-49.472 100.288-89.6 224-89.6S512 97.72799999999995 512 147.20000000000005zM1024 313.6v-134.4c0-49.472-100.288-89.6-224-89.6S576 129.72799999999995 576 179.20000000000005V313.6c0-49.472 100.288-89.6 224-89.6S1024 264.12800000000004 1024 313.6z m-224-44.8C676.288 268.79999999999995 576 308.928 576 358.4 576 407.872 676.288 448 800 448s224-40.128 224-89.6c0-49.472-100.288-89.6-224-89.6zM1024 134.39999999999998V0c0-49.472-100.288-89.6-224-89.6S576-49.47199999999998 576 0v134.4c0-49.472 100.288-89.6 224-89.6s224 40.128 224 89.6z"  horiz-adv-x="1024" />

    
    <glyph glyph-name="col" unicode="&#58890;" d="M0 640h1024v-67.392H0V640zM0 835.392h1024V768H0V835.392zM0 64h1024v-67.392H0V64z m0 192h1024v-67.392H0V256z m0 192h1024v-67.392H0V448z"  horiz-adv-x="1024" />

    
    <glyph glyph-name="cols" unicode="&#58891;" d="M660.8 288H1024v-64h-340.8l-160-128h-61.952L320-45.248l-124.544 124.544L64-128H0l188.544 304.704L320 45.248 434.752 160h66.048l160 128zM0 832h1024v-64H0V832z m0-192h1024v-64H0V640z m0-192h1024v-64H0V448z"  horiz-adv-x="1024" />

    
    <glyph glyph-name="colsp" unicode="&#58892;" d="M0 384h1024v-64H0V384z m0-192h1024v-64H0v64z m0-192h1024v-64H0v64zM660.8 864H1024v-64h-340.8l-160-128h-61.952L320 530.752 195.456 655.296 64 448H0l188.544 304.704L320 621.248 434.752 736h66.048l160 128z"  horiz-adv-x="1024" />

    
    <glyph glyph-name="comment" unicode="&#58893;" d="M1024 64v-192l-224 192H192a192 192 0 0 0-192 192V640a192 192 0 0 0 192 192h640a192 192 0 0 0 192-192v-576zM256 384a64 64 0 1 1 0 128 64 64 0 0 1 0-128z m256 0a64 64 0 1 1 0 128 64 64 0 0 1 0-128z m256 0a64 64 0 1 1 0 128 64 64 0 0 1 0-128z"  horiz-adv-x="1024" />

    
    <glyph glyph-name="down" unicode="&#58894;" d="M512 192L128 576h768z"  horiz-adv-x="1024" />

    
    <glyph glyph-name="downs" unicode="&#58895;" d="M320 320H64l448-448 448 448h-256V896H320v-576z"  horiz-adv-x="1024" />

    
    <glyph glyph-name="fullseencopy" unicode="&#58896;" d="M602.496 384l384-384L896-90.49599999999998l-384 384-384-384L37.504 0l384 384-384 384L128 858.496l384-384 384 384L986.496 768l-384-384z"  horiz-adv-x="1024" />

    
    <glyph glyph-name="fullseen" unicode="&#58897;" d="M205.248 781.248L512 474.496l306.752 306.752L704 896h320v-320l-114.752 114.752L602.496 384l306.752-306.752L1024 192v-320h-320l114.752 114.752L512 293.504l-306.752-306.752L320-128H0v320l114.752-114.752L421.504 384 114.752 690.752 0 576V896h320L205.248 781.248z"  horiz-adv-x="1024" />

    
    <glyph glyph-name="hourscopy" unicode="&#58898;" d="M551.384615 377.22584600000005V738.461538a39.384615 39.384615 0 0 1-78.76923 0v-393.846153l188.770461-188.770462a39.384615 39.384615 0 0 1 55.689846 55.689846L551.384615 377.22584600000005zM512-88.61538499999995C250.998154-88.61538499999995 39.384615 122.998154 39.384615 384S250.998154 856.6153850000001 512 856.6153850000001s472.615385-211.613538 472.615385-472.615385-211.613538-472.615385-472.615385-472.615385z"  horiz-adv-x="1024" />

    
    <glyph glyph-name="hourscopy1" unicode="&#58899;" d="M118.153846 856.6153850000001h787.692308a78.769231 78.769231 0 0 0 78.769231-78.769231v-787.692308a78.769231 78.769231 0 0 0-78.769231-78.769231H118.153846a78.769231 78.769231 0 0 0-78.769231 78.769231V777.846154a78.769231 78.769231 0 0 0 78.769231 78.769231z m78.769231-590.769231a39.384615 39.384615 0 0 1-39.384615-39.384616v-236.307692h78.76923v236.307692a39.384615 39.384615 0 0 1-39.384615 39.384616z m196.923077 118.153846a39.384615 39.384615 0 0 1-39.384616-39.384615v-354.461539h78.769231v354.461539a39.384615 39.384615 0 0 1-39.384615 39.384615z m196.923077 118.153846a39.384615 39.384615 0 0 1-39.384616-39.384615v-472.615385h78.769231V462.769231a39.384615 39.384615 0 0 1-39.384615 39.384615z m196.923077 157.538462a39.384615 39.384615 0 0 1-39.384616-39.384616v-630.153846h78.769231V620.307692a39.384615 39.384615 0 0 1-39.384615 39.384616z"  horiz-adv-x="1024" />

    
    <glyph glyph-name="hourscopy2" unicode="&#58900;" d="M630.784 512.1575379999999l-215.985231-38.124307a78.769231 78.769231 0 0 1-132.804923-81.604923L86.646154 131.93846199999996a39.384615 39.384615 0 1 1 63.015384-47.261539l195.347693 260.489846a78.769231 78.769231 0 0 1 83.495384 51.278769l234.850462 41.472a78.769231 78.769231 0 0 1 117.208615 97.043693l156.23877 198.892307a39.384615 39.384615 0 1 1-61.912616 48.64L716.248615 580.529231a78.769231 78.769231 0 0 1-85.464615-68.450462zM118.153846 856.6153850000001h787.692308a78.769231 78.769231 0 0 0 78.769231-78.769231v-787.692308a78.769231 78.769231 0 0 0-78.769231-78.769231H118.153846a78.769231 78.769231 0 0 0-78.769231 78.769231V777.846154a78.769231 78.769231 0 0 0 78.769231 78.769231z m590.769231-393.846154a39.384615 39.384615 0 1 0 0 78.769231 39.384615 39.384615 0 0 0 0-78.769231z m-354.461539-78.769231a39.384615 39.384615 0 1 0 0 78.769231 39.384615 39.384615 0 0 0 0-78.769231z"  horiz-adv-x="1024" />

    
    <glyph glyph-name="like" unicode="&#58901;" d="M755.968 480.064h136c45.376 0 68.032-22.656 68.032-67.968 0-45.376-22.656-68.032-68.032-68.032 45.376 0 68.032-22.656 68.032-68.032 0-45.312-22.656-67.968-68.032-67.968 45.376 0 68.032-22.72 68.032-68.032s-22.656-68.032-68.032-68.032c45.376 0 68.032-22.656 68.032-67.968 0-45.376-45.312-68.032-136-68.032H551.936c-90.688 0-158.72 22.656-204.032 68.032V480c98.752 22.72 170.752 68.032 216.128 136.064 67.968 102.016 89.92 170.048 123.904 204.032 34.048 33.984 136.064 0 68.032-170.048l-42.752-106.88a46.08 46.08 0 0 1 42.752-63.168zM64 480h192a64 64 0 0 0 64-64V64a64 64 0 0 0-64-64H64a64 64 0 0 0-64 64V416a64 64 0 0 0 64 64z"  horiz-adv-x="1024" />

    
    <glyph glyph-name="normal-img" unicode="&#58902;" d="M170.666667 164.57142899999997V725.333333a48.761905 48.761905 0 0 0 48.761904 48.761905h390.095239a48.761905 48.761905 0 0 0 48.761904-48.761905v-146.285714h195.047619a73.142857 73.142857 0 0 0 73.142857-73.142857v-438.857143a48.761905 48.761905 0 0 0-48.761904-48.761905H195.047619v24.380953h243.809524v97.523809H109.714286v24.380953H170.666667z m60.952381 0H438.857143V505.904762a73.142857 73.142857 0 0 0 73.142857 73.142857h121.904762V725.333333a24.380952 24.380952 0 0 1-24.380952 24.380953H219.428571a24.380952 24.380952 0 0 1-24.380952-24.380953v-560.761904h36.571429z m231.619047-24.380953v-97.523809h414.476191a24.380952 24.380952 0 0 1 24.380952 24.380952V505.904762a48.761905 48.761905 0 0 1-48.761905 48.761905H512a48.761905 48.761905 0 0 1-48.761905-48.761905v-365.714286z m145.188572 268.190476v24.380953h246.003809v-24.380953h-246.003809z m0-121.904762v24.380953h246.003809v-24.380953h-246.003809z m0-121.904761v24.380952h246.003809v-24.380952h-246.003809zM261.534476 627.809524v24.380952h135.216762v-24.380952h-135.216762z m0-121.904762v24.380952h135.216762v-24.380952h-135.216762z m0-121.904762v24.380952h135.216762v-24.380952h-135.216762z m0-121.904762v24.380952h135.216762v-24.380952h-135.216762z m263.753143 146.285714v24.380953h46.567619v-24.380953h-46.567619z m0-121.904762v24.380953h46.567619v-24.380953h-46.567619z m0-121.904761v24.380952h46.567619v-24.380952h-46.567619zM24.380952 18.285713999999984v24.380953h146.285715v-24.380953H24.380952z m60.952381 146.285715v-24.380953h-48.761904v24.380953h48.761904z"  horiz-adv-x="1024" />

    
    <glyph glyph-name="safe" unicode="&#58904;" d="M960 793.344v-614.208c-128-163.84-277.312-266.24-448-307.136-170.688 61.44-320 163.84-448 307.136V793.344C244.928 793.344 406.4 833.408 512 896c105.6-62.592 267.072-102.656 448-102.656zM512 704L320 384l192-32V64l192 384-192 32V704z"  horiz-adv-x="1024" />

    
    <glyph glyph-name="search" unicode="&#58905;" d="M696.96 289.472l297.344-297.216-90.56-90.56-297.216 297.28a384 384 0 1 0 90.496 90.496zM384 256a256 256 0 1 1 0 512 256 256 0 0 1 0-512z"  horiz-adv-x="1024" />

    
    <glyph glyph-name="setting" unicode="&#58906;" d="M252.219429 101.179846a385.529012 385.529012 0 0 0-77.694592 99.454198l-145.469364 12.927765a510.262751 510.262751 0 0 0-28.67148 150.845266L132.477599 443.189647a381.24109 381.24109 0 0 0 28.287487 96.318254L80.894534 660.337711A514.74267 514.74267 0 0 0 195.196462 786.159431l149.757286-56.318979a381.433087 381.433087 0 0 0 50.367087 20.095635L440.952008 891.117528a516.470639 516.470639 0 0 0 186.044628-8.127852l49.151109-151.74125c6.911875-3.32794 13.759751-6.783877 20.41563-10.431811l145.341365 54.719008a514.23068 514.23068 0 0 0 120.701813-148.221313l-84.41447-127.549688c3.007945-9.407829 5.631898-19.007655 7.871857-28.671481L1023.98144 388.854632V383.99072c0-61.182891-10.751805-119.869827-30.399449-174.204842l-146.301348-13.055764a384.825025 384.825025 0 0 0-39.359287-57.470958l21.439612-157.053153c-42.687226-33.791388-90.878353-60.862897-142.973409-79.742555l-99.966188 104.766101a385.913005 385.913005 0 0 0-112.637958-5.375903l-104.638104-109.694011a509.558764 509.558764 0 0 0-136.82952 62.910859l19.90364 146.109352zM512.374713 191.99419999999998a191.99652 191.99652 0 1 1 0 383.99304 191.99652 191.99652 0 0 1 0-383.99304z"  horiz-adv-x="1024" />

    
    <glyph glyph-name="Star" unicode="&#58907;" d="M513.258789 90.03885700000001l232.740571-118.418286a36.571429 36.571429 0 0 1 52.736 38.326858l-40.667429 257.974857 184.539429 184.758857a36.571429 36.571429 0 0 1-20.114286 61.952l-257.974857 40.96-118.710857 232.667428a36.571429 36.571429 0 0 1-65.097143 0l-118.710857-232.594285-257.974857-40.96a36.571429 36.571429 0 0 1-20.114286-62.025143l184.539429-184.758857-40.667429-257.974857a36.571429 36.571429 0 0 1 52.662857-38.326858L513.258789 90.03885700000001z m0-82.066286l-199.68-101.522285a109.714286 109.714286 0 0 0-157.988572 114.834285l34.816 221.257143L32.125074 400.969143a109.714286 109.714286 0 0 0 60.416 185.929143l221.184 35.108571 101.814857 199.533714a109.714286 109.714286 0 0 0 195.437715 0l101.814857-199.460571 221.184-35.181714a109.714286 109.714286 0 0 0 60.416-185.929143l-158.281143-158.427429 34.889143-221.257143a109.714286 109.714286 0 0 0-158.134857-114.834285L513.258789 7.972571000000016z"  horiz-adv-x="1026" />

    
    <glyph glyph-name="starcopy" unicode="&#58909;" d="M512 90.88l-300.928-153.088 52.608 333.504L25.088 510.208l333.44 53.056L512 864l153.472-300.8 333.44-52.992L760.32 271.36l52.608-333.504z"  horiz-adv-x="1024" />

    
    <glyph glyph-name="up" unicode="&#58910;" d="M320 448H64l448 448 448-448h-256v-576H320V448z"  horiz-adv-x="1024" />

    
    <glyph glyph-name="up1" unicode="&#58911;" d="M512 576l384-384L128 192z"  horiz-adv-x="1024" />

    
    <glyph glyph-name="checkboxed" unicode="&#58913;" d="M128 896h768a128 128 0 0 0 128-128v-768a128 128 0 0 0-128-128H128a128 128 0 0 0-128 128V768a128 128 0 0 0 128 128z m258.304-684.288L205.248 392.704 114.752 302.20799999999997l271.552-271.552 543.04 543.04-90.496 90.56-452.544-452.544z"  horiz-adv-x="1024" />

    
    <glyph glyph-name="checkboxed1" unicode="&#58914;" d="M0 896m128 0l768 0q128 0 128-128l0-768q0-128-128-128l-768 0q-128 0-128 128l0 768q0 128 128 128Z"  horiz-adv-x="1024" />

    
    <glyph glyph-name="hebingxingzhuang" unicode="&#58915;" d="M508.388082-127.845434c-28.015094-0.057962-41.945358-0.057962-41.819774 0.019321C259.488459-70.90717 131.00544 96.565132 81.138572 374.590792 73.419931 606.034113 77.284082 727.04 92.692383 737.589132c8.433509 16.229434 21.784151 31.309283 40.061585 45.249208 81.14717-17.098868 149.107925-17.098868 203.930566 0C391.478195 799.937208 440.427327 837.651321 483.531931 896h49.692981c43.085283-58.339019 92.044075-96.053132 146.857056-113.16166 54.812981-17.098868 122.783396-17.098868 203.930566 0 18.267774-13.939925 31.628075-29.019774 40.061585-45.249208 15.398642-10.549132 19.253132-131.555019 11.553812-362.99834-49.876528-278.02566-178.349887-445.497962-385.439397-502.416905 0.135245-0.077283-13.81434-0.077283-41.810113-0.019321zM443.209515 257.932075L321.624006 379.517585 260.831251 318.72483l182.378264-182.378264 364.746868 364.746868-60.792754 60.792755L443.219176 257.932075z"  horiz-adv-x="1024" />

    
    <glyph glyph-name="ion-android-contact" unicode="&#58916;" d="M711.205298 166.152477c79.912689-24.860821 147.388185-63.040424 202.440053-114.538808 55.045086-51.498384 91.454728-110.985325 109.208583-178.467603H0c17.760636 67.475497 54.163497 126.969219 109.208583 178.467603 55.051868 51.498384 122.534146 89.677987 202.440053 114.538808 60.382093-35.521272 126.969219-53.275126 199.781722-53.275126 72.805722 0 139.399629 17.753854 199.77494 53.275126zM261.038623 792.108079C330.297642 861.373881 413.757033 896 511.430358 896c97.666543 0 180.685139-34.178543 249.049006-102.549192 68.370649-68.370649 102.555974-151.389245 102.555974-249.055788 0-97.673325-34.178543-180.685139-102.555974-249.055788-68.363868-68.370649-151.382464-102.549192-249.049006-102.549192-97.673325 0-180.691921 34.178543-249.055788 102.549192-68.370649 68.370649-102.555974 151.382464-102.555974 249.055788 0 97.666543 33.74453 180.237563 101.220027 247.726622zM362.26543 325.971073c44.398199-30.191046 94.119841-45.279788 149.171709-45.279788 55.045086 0 104.77351 15.529536 149.164927 46.608953 44.391417 31.079417 76.359205 71.476556 95.889802 121.198199H266.375629c19.530596-49.721642 51.498384-90.559576 95.889801-122.527364z"  horiz-adv-x="1024" />

    
    <glyph glyph-name="star" unicode="&#58917;" d="M512 90.88l-189.184-96.256a64 64 0 0 0-92.224 67.008L263.68 271.36 113.664 421.504a64 64 0 0 0 35.2 108.416l209.664 33.28 96.448 189.12a64 64 0 0 0 114.048 0L665.472 563.2l209.6-33.344a64 64 0 0 0 35.2-108.416L760.32 271.296l33.088-209.664a64 64 0 0 0-92.224-67.008L512 90.88z"  horiz-adv-x="1024" />

    
    <glyph glyph-name="ion-ios-paper-Ioni" unicode="&#58918;" d="M127.352163 890.77551H1018.77551v-936.531592c0-22.987755-7.962122-42.443755-23.875918-58.368C978.964898-120.037878 959.519347-128 936.531592-128H82.233469c-22.987755 0-42.443755 7.962122-58.368 23.875918C7.962122-88.189388 0-68.743837 0-45.756082V763.433796h84.897959v-764.092082h42.454204V890.77551z m127.341715-127.352163v-42.443755h339.591836v42.454204h-339.591836z m0-424.479347v-42.454204h509.387755v42.454204h-509.387755z m636.739918-254.704327v42.454205H254.683429v-42.454205h636.739918z m0 424.500245V551.183673H254.683429v-42.454204h636.739918z"  horiz-adv-x="1024" />

    
    <glyph glyph-name="ion-close-circled-" unicode="&#58919;" d="M139.972923 702.464C234.732308 797.223385 348.947692 844.642462 482.461538 844.642462c133.513846 0 247.335385-47.025231 341.385847-141.075693 94.050462-94.050462 141.075692-207.872 141.075692-341.385846 0-133.592615-47.025231-247.335385-141.075692-341.385846-94.050462-94.050462-207.872-141.075692-341.385847-141.075692-133.513846 0-247.335385 47.025231-341.385846 140.996923C47.025231 114.924308 0 228.745846 0 362.259692c0 133.513846 46.631385 246.941538 139.972923 340.283077z m575.094154-501.838769l-161.476923 161.476923 163.603692 161.555692c8.664615 8.664615 8.664615 17.329231 0 25.915077l-47.340308 45.213539c-4.332308 4.253538-8.664615 6.459077-12.918153 6.459076-2.914462 0-6.459077-2.205538-10.791385-6.459076L482.461538 435.357538 318.779077 594.786462c-4.332308 4.253538-7.876923 6.459077-10.791385 6.459076-4.332308 0-8.664615-2.205538-12.918154-6.459076l-45.213538-45.213539c-8.664615-8.664615-8.664615-17.329231 0-25.915077l163.682462-161.476923-163.682462-163.682461c-2.914462-1.496615-4.332308-5.041231-4.332308-10.791385 0-5.750154 1.417846-10.082462 4.332308-12.918154l45.213538-47.419077c2.914462-2.835692 7.168-4.332308 12.918154-4.332308 5.750154 0 10.082462 1.496615 12.918154 4.332308L482.461538 291.052308l163.682462-161.476923c4.332308-4.332308 7.876923-6.459077 10.791385-6.459077 4.332308 0 8.664615 2.126769 12.918153 6.459077l45.213539 45.213538a14.493538 14.493538 0 0 1 6.459077 12.918154c0 4.332308-2.126769 8.664615-6.459077 12.918154z"  horiz-adv-x="1024" />

    
    <glyph glyph-name="weibiaoti-" unicode="&#58923;" d="M514.925714 29.98857099999998c-17.554286 0-33.645714 5.851429-46.811428 16.091429-13.165714 11.702857-20.48 26.331429-20.48 42.422857h21.942857c0-8.777143 4.388571-19.017143 11.702857-24.868571 16.091429-14.628571 46.811429-14.628571 62.902857 0 7.314286 7.314286 11.702857 16.091429 11.702857 24.868571 0 8.777143-4.388571 19.017143-11.702857 24.868572-8.777143 7.314286-19.017143 11.702857-32.182857 11.702857-17.554286 0-33.645714 5.851429-46.811429 16.091428-13.165714 11.702857-20.48 26.331429-20.48 42.422857 0 16.091429 7.314286 30.72 20.48 42.422858 24.868571 21.942857 67.291429 21.942857 92.16 0 13.165714-11.702857 20.48-26.331429 20.48-42.422858H555.885714c0 8.777143-4.388571 19.017143-11.702857 24.868572-16.091429 14.628571-46.811429 14.628571-62.902857 0-7.314286-7.314286-11.702857-16.091429-11.702857-24.868572 0-8.777143 4.388571-19.017143 11.702857-24.868571 8.777143-7.314286 19.017143-11.702857 32.182857-11.702857 17.554286 0 33.645714-5.851429 46.811429-16.091429 13.165714-11.702857 20.48-26.331429 20.48-42.422857 0-16.091429-7.314286-30.72-20.48-42.422857-11.702857-10.24-27.794286-16.091429-45.348572-16.091429zM503.222857 281.6h21.942857v-49.737143h-21.942857zM503.222857 41.69142899999997h21.942857v-49.737143h-21.942857zM514.925714-76.79999999999995c-117.028571 0-212.114286 95.085714-212.114285 212.114286s95.085714 212.114286 212.114285 212.114285S727.04 252.34285699999998 727.04 135.31428600000004s-95.085714-212.114286-212.114286-212.114286z m0 403.748571c-105.325714 0-190.171429-86.308571-190.171428-190.171428 0-105.325714 86.308571-190.171429 190.171428-190.171429 105.325714 0 190.171429 86.308571 190.171429 190.171429 0 105.325714-84.845714 190.171429-190.171429 190.171428zM263.314286 644.388571c-127.268571 0-228.205714 43.885714-228.205715 100.937143 0 57.051429 99.474286 100.937143 228.205715 100.937143s228.205714-43.885714 228.205714-100.937143c0-57.051429-99.474286-100.937143-228.205714-100.937143z m0 179.931429c-121.417143 0-206.262857-42.422857-206.262857-78.994286 0-38.034286 84.845714-78.994286 206.262857-78.994285s206.262857 42.422857 206.262857 78.994285c0 38.034286-84.845714 78.994286-206.262857 78.994286zM263.314286 644.388571c-127.268571 0-228.205714 43.885714-228.205715 100.937143 0 57.051429 99.474286 100.937143 228.205715 100.937143s228.205714-43.885714 228.205714-100.937143c0-57.051429-99.474286-100.937143-228.205714-100.937143z m0 179.931429c-121.417143 0-206.262857-42.422857-206.262857-78.994286 0-38.034286 84.845714-78.994286 206.262857-78.994285s206.262857 42.422857 206.262857 78.994285c0 38.034286-84.845714 78.994286-206.262857 78.994286zM263.314286 501.028571c-127.268571 0-228.205714 43.885714-228.205715 100.937143h21.942858c0-38.034286 84.845714-78.994286 206.262857-78.994285s206.262857 42.422857 206.262857 78.994285h21.942857C491.52 544.914286 392.045714 501.028571 263.314286 501.028571zM263.314286 353.28c-127.268571 0-228.205714 43.885714-228.205715 100.937143h21.942858c0-38.034286 84.845714-78.994286 206.262857-78.994286s206.262857 42.422857 206.262857 78.994286h21.942857c0-57.051429-99.474286-100.937143-228.205714-100.937143zM263.314286 205.531429c-127.268571 0-228.205714 43.885714-228.205715 100.937142h21.942858c0-38.034286 84.845714-78.994286 206.262857-78.994285 23.405714 0 45.348571 1.462857 67.291428 4.388571l2.925715-21.942857c-21.942857-2.925714-45.348571-4.388571-70.217143-4.388571zM263.314286 59.24571400000002c-127.268571 0-228.205714 43.885714-228.205715 100.937143h21.942858c0-38.034286 84.845714-78.994286 206.262857-78.994286 20.48 0 39.497143 1.462857 58.514285 2.925715l2.925715-21.942857c-20.48-2.925714-40.96-2.925714-61.44-2.925715zM469.577143 745.3257140000001h21.942857v-411.062857h-21.942857zM263.314286-76.79999999999995c-127.268571 0-228.205714 43.885714-228.205715 100.937143V745.3257140000001h21.942858v-721.188571C57.051429-12.434286000000043 141.897143-54.85714299999995 263.314286-54.85714299999995c55.588571 0 108.251429 8.777143 147.748571 24.868572l8.777143-20.48c-42.422857-16.091429-98.011429-26.331429-156.525714-26.331429zM778.24 362.057143c-121.417143 0-216.502857 43.885714-216.502857 100.937143 0 57.051429 95.085714 100.937143 216.502857 100.937143s216.502857-43.885714 216.502857-100.937143c-1.462857-57.051429-96.548571-100.937143-216.502857-100.937143z m0 179.931428c-115.565714 0-194.56-40.96-194.56-78.994285 0-38.034286 77.531429-78.994286 194.56-78.994286 115.565714 0 194.56 40.96 194.56 78.994286-1.462857 38.034286-78.994286 78.994286-194.56 78.994285zM778.24 362.057143c-121.417143 0-216.502857 43.885714-216.502857 100.937143 0 57.051429 95.085714 100.937143 216.502857 100.937143s216.502857-43.885714 216.502857-100.937143c-1.462857-57.051429-96.548571-100.937143-216.502857-100.937143z m0 179.931428c-115.565714 0-194.56-40.96-194.56-78.994285 0-38.034286 77.531429-78.994286 194.56-78.994286 115.565714 0 194.56 40.96 194.56 78.994286-1.462857 38.034286-78.994286 78.994286-194.56 78.994285zM778.24 218.69714299999998c-32.182857 0-62.902857 2.925714-90.697143 8.777143l4.388572 21.942857c26.331429-5.851429 55.588571-8.777143 86.308571-8.777143 115.565714 0 194.56 40.96 194.56 78.994286H994.742857c-1.462857-57.051429-96.548571-100.937143-216.502857-100.937143zM778.24 70.94857100000002c-23.405714 0-46.811429 1.462857-68.754286 4.388572l2.925715 21.942857c20.48-2.925714 42.422857-4.388571 65.828571-4.388571 115.565714 0 194.56 40.96 194.56 78.994285H994.742857c-1.462857-57.051429-96.548571-100.937143-216.502857-100.937143zM778.24-76.79999999999995c-61.44 0-119.954286 11.702857-159.451429 32.182857L629.028571-25.600000000000023c38.034286-19.017143 92.16-29.257143 150.674286-29.257143 115.565714 0 194.56 40.96 194.56 78.994286v438.857143h21.942857v-438.857143c-2.925714-55.588571-98.011429-100.937143-217.965714-100.937143zM561.737143 462.994286h21.942857v-133.12h-21.942857z"  horiz-adv-x="1024" />

    
    <glyph glyph-name="anquanbaozhang" unicode="&#58924;" d="M507.611429-95.817143l-2.925715 1.462857c-4.388571 1.462857-8.777143 2.925714-14.628571 4.388572C260.388571-22.674286 99.474286 193.828571 99.474286 433.737143v277.942857l409.6 152.137143 2.925714-1.462857 405.211429-150.674286v-277.942857c0-242.834286-162.377143-459.337143-394.971429-526.628572-2.925714-1.462857-10.24-2.925714-10.24-2.925714h-4.388571zM121.417143 697.051429v-261.851429c0-231.131429 155.062857-438.857143 375.954286-504.685714 2.925714-1.462857 7.314286-1.462857 10.24-2.925715 2.925714 0 5.851429 1.462857 7.314285 1.462858 223.817143 64.365714 380.342857 272.091429 380.342857 504.685714v263.314286L507.611429 840.411429 121.417143 697.051429zM507.611429 57.782857l-4.388572 1.462857c-155.062857 58.514286-258.925714 209.188571-258.925714 374.491429v175.542857l263.314286 98.011429 263.314285-98.011429v-175.542857c0-165.302857-103.862857-315.977143-258.925714-374.491429l-4.388571-1.462857zM267.702857 594.651429v-160.914286c0-155.062857 96.548571-296.96 241.371429-352.548572 144.822857 57.051429 241.371429 197.485714 241.371428 352.548572v160.914286l-241.371428 89.234285-241.371429-89.234285zM507.611429 265.508571c-20.48 0-39.497143 7.314286-54.125715 19.017143-14.628571 13.165714-23.405714 30.72-23.405714 48.274286H453.485714c0-11.702857 5.851429-23.405714 16.091429-32.182857 20.48-17.554286 58.514286-17.554286 78.994286 0 10.24 8.777143 16.091429 20.48 16.091428 32.182857 0 11.702857-5.851429 23.405714-16.091428 32.182857-10.24 8.777143-24.868571 14.628571-39.497143 14.628572-20.48 0-39.497143 7.314286-54.125715 19.017142-14.628571 13.165714-23.405714 30.72-23.405714 48.274286 0 19.017143 8.777143 35.108571 23.405714 48.274286 14.628571 13.165714 33.645714 19.017143 54.125715 19.017143 20.48 0 39.497143-7.314286 54.125714-19.017143 14.628571-13.165714 23.405714-30.72 23.405714-48.274286h-21.942857c0 11.702857-5.851429 23.405714-16.091428 32.182857-20.48 17.554286-58.514286 17.554286-78.994286 0-10.24-8.777143-16.091429-20.48-16.091429-32.182857 0-11.702857 5.851429-23.405714 16.091429-32.182857 10.24-8.777143 24.868571-14.628571 39.497143-14.628571 20.48 0 39.497143-7.314286 54.125714-19.017143 14.628571-13.165714 23.405714-30.72 23.405714-48.274286s-8.777143-35.108571-23.405714-48.274286c-16.091429-13.165714-35.108571-19.017143-55.588571-19.017143zM497.371429 563.931429h21.942857v-59.977143H497.371429zM497.371429 275.748571h21.942857v-59.977142H497.371429z"  horiz-adv-x="1024" />

    
    <glyph glyph-name="duteshequnhua" unicode="&#58925;" d="M912.822857 303.542857l-10.24 1.462857c-4.388571 0-8.777143 1.462857-11.702857 1.462857l2.925714 10.24 2.925715 10.24c2.925714-1.462857 5.851429-1.462857 8.777142-1.462857l11.702858-1.462857-1.462858-11.702857c-1.462857-1.462857-1.462857-4.388571-2.925714-8.777143zM873.325714 193.828571l-19.017143 10.24c2.925714 5.851429 5.851429 11.702857 8.777143 19.017143l20.48-8.777143c-2.925714-7.314286-5.851429-13.165714-10.24-20.48z m24.868572 54.125715l-20.48 7.314285c2.925714 5.851429 4.388571 13.165714 5.851428 19.017143l20.48-5.851428c-1.462857-7.314286-4.388571-13.165714-5.851428-20.48zM841.142857 144.091429l-8.777143 7.314285c-2.925714 1.462857-4.388571 4.388571-7.314285 5.851429l5.851428 8.777143 5.851429 10.24c2.925714-1.462857 7.314286-4.388571 10.24-7.314286l8.777143-5.851429c-1.462857-2.925714-4.388571-5.851429-5.851429-8.777142l-8.777143-10.24zM713.874286 98.742857v5.851429c0 5.851429 0 10.24 1.462857 16.091428l21.942857-4.388571c-1.462857-4.388571-1.462857-7.314286-1.462857-11.702857v-4.388572l-21.942857-1.462857z m33.645714 42.422857l-17.554286 13.165715c1.462857 2.925714 4.388571 5.851429 7.314286 8.777142 2.925714 2.925714 5.851429 5.851429 8.777143 7.314286l13.165714-17.554286c-1.462857-1.462857-4.388571-2.925714-5.851428-5.851428-2.925714-1.462857-4.388571-2.925714-5.851429-5.851429z m35.108571 23.405715l-4.388571 21.942857c7.314286 1.462857 14.628571 1.462857 21.942857 1.462857l-1.462857-23.405714c-4.388571 1.462857-10.24 0-16.091429 0zM737.28 46.08l-5.851429 8.777143c-2.925714 2.925714-4.388571 5.851429-7.314285 10.24l8.777143 5.851428 8.777142 5.851429c1.462857-2.925714 2.925714-4.388571 5.851429-7.314286l7.314286-8.777143-8.777143-8.777142c-2.925714-2.925714-5.851429-4.388571-8.777143-5.851429zM631.954286-3.657143l-5.851429 20.48c7.314286 1.462857 13.165714 4.388571 19.017143 5.851429l7.314286-20.48c-5.851429-1.462857-13.165714-4.388571-20.48-5.851429z m54.125714 20.48l-8.777143 20.48c5.851429 2.925714 13.165714 5.851429 19.017143 8.777143l10.24-19.017143c-7.314286-4.388571-13.165714-7.314286-20.48-10.24zM573.44-16.822857l-1.462857 11.702857c0 2.925714-1.462857 5.851429-1.462857 8.777143l10.24 2.925714 10.24 2.925714c1.462857-4.388571 1.462857-7.314286 1.462857-11.702857l1.462857-10.24c-4.388571 0-7.314286-1.462857-11.702857-1.462857l-8.777143-2.925714zM558.811429 28.525714c-2.925714 4.388571-7.314286 7.314286-11.702858 10.24l11.702858 17.554286c5.851429-4.388571 11.702857-8.777143 16.091428-14.628571l-16.091428-13.165715z m-90.697143 0l-16.091429 14.628572c4.388571 5.851429 10.24 10.24 16.091429 14.628571l11.702857-17.554286-11.702857-11.702857z m52.662857 19.017143h-16.091429l-2.925714 21.942857c7.314286 1.462857 14.628571 1.462857 21.942857 0l-2.925714-21.942857zM453.485714-16.822857l-11.702857 1.462857c-4.388571 0-7.314286 1.462857-11.702857 1.462857l1.462857 10.24c0 4.388571 1.462857 7.314286 1.462857 11.702857l10.24-2.925714 10.24-2.925714c-1.462857-2.925714-1.462857-5.851429-1.462857-8.777143l1.462857-10.24zM394.971429-3.657143c-7.314286 1.462857-14.628571 4.388571-20.48 7.314286l7.314285 20.48c5.851429-2.925714 13.165714-4.388571 19.017143-5.851429l-5.851428-21.942857z m-54.125715 20.48c-7.314286 2.925714-13.165714 5.851429-19.017143 10.24l10.24 19.017143c5.851429-2.925714 11.702857-5.851429 19.017143-8.777143l-10.24-20.48zM289.645714 46.08c-2.925714 1.462857-5.851429 4.388571-8.777143 5.851429l-10.24 7.314285 7.314286 8.777143c1.462857 2.925714 4.388571 4.388571 5.851429 7.314286l19.017143-11.702857c-1.462857-2.925714-4.388571-7.314286-7.314286-10.24l-5.851429-7.314286zM313.051429 98.742857l-21.942858 1.462857v4.388572c0 4.388571 0 7.314286-1.462857 11.702857l21.942857 4.388571c1.462857-4.388571 1.462857-10.24 1.462858-16.091428v-5.851429z m-33.645715 42.422857c-1.462857 1.462857-2.925714 4.388571-5.851428 5.851429l-5.851429 5.851428 13.165714 17.554286c2.925714-2.925714 5.851429-4.388571 8.777143-7.314286 2.925714-2.925714 5.851429-5.851429 7.314286-8.777142l-17.554286-13.165715zM242.834286 164.571429c-5.851429 1.462857-10.24 1.462857-16.091429 1.462857l-1.462857 21.942857c7.314286 0 14.628571 0 21.942857-1.462857l-4.388571-21.942857zM184.32 144.091429l-7.314286 10.24c-1.462857 2.925714-4.388571 5.851429-5.851428 8.777142l8.777143 5.851429c2.925714 2.925714 5.851429 4.388571 10.24 7.314286l5.851428-8.777143 5.851429-8.777143c-2.925714-1.462857-5.851429-2.925714-7.314286-5.851429l-10.24-8.777142zM153.6 193.828571c-2.925714 5.851429-7.314286 13.165714-10.24 19.017143l20.48 8.777143c2.925714-5.851429 5.851429-13.165714 8.777143-19.017143l-19.017143-8.777143z m-24.868571 54.125715c-2.925714 7.314286-4.388571 13.165714-7.314286 20.48l20.48 5.851428c1.462857-7.314286 4.388571-13.165714 5.851428-19.017143l-19.017142-7.314285zM112.64 303.542857c-1.462857 4.388571-1.462857 7.314286-1.462857 11.702857l-1.462857 11.702857 11.702857 1.462858c2.925714 0 5.851429 1.462857 8.777143 1.462857l5.851428-21.942857c-4.388571-1.462857-7.314286-1.462857-11.702857-1.462858l-11.702857-2.925714zM168.228571 325.485714l-14.628571 16.091429c4.388571 2.925714 7.314286 7.314286 10.24 11.702857l17.554286-11.702857c-2.925714-5.851429-7.314286-11.702857-13.165715-16.091429z m27.794286 49.737143l-21.942857 2.925714v8.777143 7.314286l21.942857 2.925714v-10.24c1.462857-2.925714 0-7.314286 0-11.702857z m-30.72 45.348572c-2.925714 4.388571-7.314286 8.777143-10.24 11.702857l14.628572 16.091428c5.851429-4.388571 10.24-10.24 14.628571-16.091428l-19.017143-11.702857zM130.194286 443.977143c-2.925714 0-5.851429 1.462857-8.777143 1.462857l-11.702857 1.462857 1.462857 11.702857c0 4.388571 1.462857 7.314286 1.462857 11.702857l10.24-1.462857c4.388571 0 7.314286-1.462857 11.702857-1.462857L131.657143 457.142857l-1.462857-13.165714zM143.36 499.565714l-20.48 5.851429c1.462857 7.314286 4.388571 14.628571 7.314286 20.48l20.48-7.314286c-2.925714-5.851429-5.851429-13.165714-7.314286-19.017143z m19.017143 51.2L143.36 559.542857c2.925714 7.314286 5.851429 13.165714 10.24 19.017143l19.017143-10.24c-2.925714-4.388571-7.314286-11.702857-10.24-17.554286zM190.171429 599.04c-2.925714 1.462857-7.314286 4.388571-10.24 7.314286l-8.777143 5.851428c1.462857 2.925714 4.388571 5.851429 5.851428 8.777143l7.314286 10.24 8.777143-7.314286c2.925714-1.462857 4.388571-4.388571 7.314286-5.851428l-5.851429-8.777143-4.388571-10.24zM232.594286 587.337143h-7.314286l1.462857 21.942857c5.851429 0 11.702857 0 16.091429 1.462857l4.388571-21.942857c-4.388571-1.462857-10.24-1.462857-14.628571-1.462857z m48.274285 16.091428l-13.165714 17.554286c1.462857 1.462857 4.388571 2.925714 5.851429 5.851429l5.851428 5.851428 17.554286-13.165714c-2.925714-2.925714-4.388571-5.851429-7.314286-8.777143-2.925714-2.925714-5.851429-4.388571-8.777143-7.314286z m30.72 49.737143l-21.942857 4.388572c0 4.388571 1.462857 7.314286 1.462857 11.702857v4.388571l21.942858 1.462857v-7.314285c0-4.388571 0-10.24-1.462858-14.628572zM282.331429 698.514286c-1.462857 2.925714-2.925714 5.851429-5.851429 7.314285l-7.314286 8.777143 10.24 7.314286c2.925714 1.462857 5.851429 4.388571 8.777143 5.851429l5.851429-8.777143c2.925714-2.925714 4.388571-5.851429 7.314285-10.24l-8.777142-4.388572-10.24-5.851428zM330.605714 727.771429l-10.24 19.017142c5.851429 2.925714 13.165714 7.314286 19.017143 10.24l8.777143-20.48c-4.388571-1.462857-11.702857-5.851429-17.554286-8.777142z m51.2 23.405714l-7.314285 20.48c5.851429 1.462857 13.165714 4.388571 20.48 5.851428l5.851428-20.48c-5.851429-1.462857-13.165714-4.388571-19.017143-5.851428zM434.468571 764.342857c-1.462857 4.388571-1.462857 7.314286-1.462857 11.702857l-1.462857 10.24c4.388571 1.462857 7.314286 1.462857 11.702857 1.462857l10.24 2.925715V778.971429c0-2.925714 1.462857-5.851429 1.462857-8.777143l-10.24-2.925715-10.24-2.925714zM513.462857 702.902857c-4.388571 0-7.314286 0-11.702857 1.462857l2.925714 21.942857c5.851429 0 10.24-1.462857 16.091429 0l2.925714-21.942857c-2.925714 0-7.314286-1.462857-10.24-1.462857z m45.348572 14.628572l-11.702858 17.554285c4.388571 2.925714 8.777143 7.314286 11.702858 10.24l16.091428-14.628571c-4.388571-4.388571-10.24-8.777143-16.091428-13.165714z m-90.697143 0c-5.851429 4.388571-11.702857 8.777143-16.091429 14.628571l16.091429 14.628571c2.925714-4.388571 7.314286-7.314286 11.702857-10.24l-11.702857-19.017142zM592.457143 764.342857l-10.24 2.925714-11.702857 2.925715c1.462857 2.925714 1.462857 5.851429 1.462857 8.777143l1.462857 11.702857 11.702857-1.462857c4.388571 0 7.314286-1.462857 11.702857-1.462858l-1.462857-10.24c-1.462857-4.388571-1.462857-8.777143-2.925714-13.165714zM696.32 727.771429c-5.851429 2.925714-11.702857 5.851429-19.017143 8.777142l8.777143 20.48c7.314286-2.925714 13.165714-5.851429 19.017143-10.24l-8.777143-19.017142z m-51.2 23.405714c-5.851429 2.925714-13.165714 4.388571-19.017143 5.851428l5.851429 20.48c7.314286-1.462857 14.628571-4.388571 20.48-7.314285l-7.314286-19.017143zM743.131429 698.514286l-8.777143 5.851428-8.777143 5.851429c1.462857 2.925714 4.388571 7.314286 7.314286 10.24l5.851428 8.777143c2.925714-1.462857 5.851429-4.388571 8.777143-5.851429l10.24-7.314286-8.777143-10.24c-1.462857-1.462857-4.388571-4.388571-5.851428-7.314285zM794.331429 587.337143c-4.388571 0-10.24 0-14.628572 1.462857l4.388572 21.942857c4.388571 0 7.314286-1.462857 11.702857-1.462857h4.388571l1.462857-21.942857h-7.314285zM744.594286 603.428571c-2.925714 2.925714-5.851429 4.388571-8.777143 7.314286-2.925714 2.925714-5.851429 5.851429-7.314286 8.777143L746.057143 632.685714c1.462857-1.462857 2.925714-4.388571 5.851428-5.851428 1.462857-1.462857 4.388571-2.925714 5.851429-5.851429l-13.165714-17.554286z m-29.257143 49.737143c-1.462857 4.388571-1.462857 10.24-1.462857 14.628572v7.314285l21.942857-1.462857v-4.388571c0-4.388571 0-7.314286 1.462857-11.702857l-21.942857-4.388572zM836.754286 599.04l-11.702857 19.017143c2.925714 1.462857 5.851429 2.925714 7.314285 5.851428l8.777143 7.314286 7.314286-10.24c1.462857-2.925714 4.388571-5.851429 5.851428-8.777143l-8.777142-5.851428c-2.925714-2.925714-5.851429-5.851429-8.777143-7.314286zM883.565714 499.565714c-1.462857 7.314286-4.388571 13.165714-5.851428 19.017143l20.48 7.314286c2.925714-7.314286 4.388571-13.165714 7.314285-20.48l-21.942857-5.851429zM863.085714 550.765714c-2.925714 5.851429-5.851429 13.165714-8.777143 19.017143l19.017143 10.24c2.925714-5.851429 7.314286-13.165714 10.24-19.017143l-20.48-10.24zM896.731429 443.977143l-2.925715 10.24-2.925714 10.24c4.388571 1.462857 7.314286 1.462857 11.702857 1.462857l10.24 1.462857c1.462857-4.388571 1.462857-7.314286 1.462857-11.702857l1.462857-11.702857-11.702857-1.462857c-1.462857 2.925714-4.388571 2.925714-7.314285 1.462857zM858.697143 325.485714c-5.851429 4.388571-10.24 10.24-14.628572 16.091429l17.554286 11.702857c2.925714-4.388571 7.314286-8.777143 10.24-11.702857l-13.165714-16.091429z m-27.794286 51.2c0 2.925714-1.462857 7.314286-1.462857 11.702857 0 4.388571 0 7.314286 1.462857 11.702858l21.942857-2.925715v-17.554285l-21.942857-2.925715z m30.72 43.885715l-17.554286 11.702857c4.388571 5.851429 8.777143 11.702857 14.628572 16.091428l14.628571-16.091428c-4.388571-2.925714-8.777143-7.314286-11.702857-11.702857zM513.462857 702.902857c-42.422857 0-77.531429 32.182857-80.457143 74.605714v7.314286C431.542857 830.171429 468.114286 866.742857 513.462857 866.742857s81.92-36.571429 81.92-81.92v-7.314286c-4.388571-42.422857-39.497143-74.605714-81.92-74.605714z m0 141.897143c-32.182857 0-59.977143-26.331429-59.977143-59.977143V778.971429c2.925714-30.72 27.794286-54.125714 58.514286-54.125715s57.051429 23.405714 58.514286 54.125715v5.851428c2.925714 32.182857-24.868571 59.977143-57.051429 59.977143zM232.594286 587.337143c-19.017143 0-38.034286 7.314286-52.662857 19.017143-1.462857 1.462857-2.925714 2.925714-5.851429 4.388571-32.182857 32.182857-32.182857 83.382857 0 115.565714 16.091429 16.091429 35.108571 23.405714 57.051429 23.405715s42.422857-8.777143 57.051428-23.405715l5.851429-5.851428c26.331429-30.72 24.868571-78.994286-5.851429-109.714286-13.165714-14.628571-33.645714-23.405714-55.588571-23.405714z m0 140.434286c-16.091429 0-30.72-5.851429-42.422857-17.554286-23.405714-23.405714-23.405714-61.44 0-83.382857l2.925714-2.925715c23.405714-20.48 59.977143-17.554286 80.457143 2.925715 21.942857 21.942857 23.405714 57.051429 2.925714 80.457143-1.462857 1.462857-2.925714 2.925714-2.925714 4.388571-10.24 10.24-24.868571 16.091429-40.96 16.091429zM115.565714 305.005714c-45.348571 0-81.92 36.571429-81.92 81.92 0 45.348571 36.571429 81.92 81.92 81.92h7.314286c42.422857-2.925714 74.605714-39.497143 74.605714-80.457143 0-42.422857-32.182857-77.531429-74.605714-80.457142-2.925714-1.462857-4.388571-2.925714-7.314286-2.925715z m0 141.897143c-32.182857 0-59.977143-26.331429-59.977143-59.977143 0-32.182857 26.331429-59.977143 59.977143-59.977143h4.388572c30.72 2.925714 54.125714 29.257143 54.125714 59.977143 0 30.72-23.405714 57.051429-54.125714 58.514286-1.462857 1.462857-2.925714 1.462857-4.388572 1.462857zM232.594286 24.137143c-21.942857 0-42.422857 8.777143-57.051429 23.405714-32.182857 32.182857-32.182857 83.382857 0 115.565714l5.851429 5.851429c14.628571 11.702857 32.182857 19.017143 51.2 19.017143 21.942857 0 42.422857-8.777143 57.051428-23.405714 29.257143-29.257143 32.182857-77.531429 4.388572-109.714286-1.462857-1.462857-2.925714-4.388571-4.388572-5.851429-16.091429-16.091429-35.108571-24.868571-57.051428-24.868571z m0 140.434286c-14.628571 0-27.794286-4.388571-38.034286-13.165715-1.462857-1.462857-2.925714-2.925714-4.388571-2.925714-23.405714-23.405714-23.405714-61.44 0-84.845714 21.942857-21.942857 61.44-21.942857 83.382857 0 1.462857 1.462857 2.925714 2.925714 2.925714 4.388571 19.017143 23.405714 17.554286 58.514286-2.925714 80.457143-10.24 10.24-24.868571 16.091429-40.96 16.091429zM513.462857-91.428571c-45.348571 0-81.92 36.571429-81.92 81.92v7.314285c4.388571 42.422857 38.034286 74.605714 80.457143 74.605715s77.531429-32.182857 80.457143-74.605715v-7.314285c2.925714-45.348571-33.645714-81.92-78.994286-81.92z m0 140.434285c-30.72 0-57.051429-23.405714-58.514286-54.125714v-5.851429c0-32.182857 26.331429-59.977143 59.977143-59.977142 32.182857 0 59.977143 26.331429 59.977143 59.977142v5.851429c-5.851429 30.72-30.72 54.125714-61.44 54.125714zM794.331429 24.137143c-21.942857 0-42.422857 8.777143-57.051429 23.405714-1.462857 1.462857-2.925714 2.925714-4.388571 5.851429-26.331429 32.182857-24.868571 78.994286 4.388571 109.714285 14.628571 14.628571 35.108571 23.405714 57.051429 23.405715 19.017143 0 38.034286-7.314286 52.662857-19.017143 1.462857-1.462857 2.925714-2.925714 5.851428-4.388572 32.182857-32.182857 32.182857-83.382857 0-115.565714-16.091429-14.628571-36.571429-23.405714-58.514285-23.405714z m0 140.434286c-16.091429 0-30.72-5.851429-42.422858-17.554286-21.942857-21.942857-23.405714-57.051429-2.925714-80.457143 1.462857-1.462857 2.925714-2.925714 2.925714-4.388571 11.702857-11.702857 26.331429-17.554286 42.422858-17.554286 16.091429 0 30.72 5.851429 42.422857 17.554286 23.405714 23.405714 23.405714 61.44 0 84.845714L833.828571 149.942857c-11.702857 10.24-24.868571 14.628571-39.497142 14.628572zM911.36 305.005714h-5.851429c-42.422857 2.925714-74.605714 39.497143-74.605714 80.457143 0 42.422857 32.182857 77.531429 74.605714 80.457143h7.314286c45.348571 0 81.92-36.571429 81.92-81.92-2.925714-42.422857-39.497143-78.994286-83.382857-78.994286z m0 141.897143H906.971429c-30.72-2.925714-54.125714-29.257143-54.125715-58.514286 0-30.72 23.405714-57.051429 54.125715-58.514285h5.851428c32.182857 0 59.977143 26.331429 59.977143 59.977143-2.925714 29.257143-29.257143 57.051429-61.44 57.051428zM794.331429 587.337143c-21.942857 0-42.422857 8.777143-57.051429 23.405714-29.257143 29.257143-32.182857 77.531429-4.388571 109.714286 1.462857 1.462857 2.925714 2.925714 4.388571 5.851428 16.091429 16.091429 35.108571 23.405714 57.051429 23.405715s42.422857-8.777143 57.051428-23.405715c32.182857-32.182857 32.182857-83.382857 0-115.565714l-5.851428-5.851428c-13.165714-11.702857-32.182857-17.554286-51.2-17.554286z m0 140.434286c-16.091429 0-30.72-5.851429-42.422858-17.554286l-2.925714-2.925714c-20.48-23.405714-19.017143-58.514286 2.925714-80.457143 11.702857-11.702857 26.331429-17.554286 42.422858-17.554286 14.628571 0 27.794286 4.388571 38.034285 13.165714 1.462857 1.462857 2.925714 2.925714 4.388572 2.925715 23.405714 23.405714 23.405714 61.44 0 83.382857-11.702857 13.165714-26.331429 19.017143-42.422857 19.017143zM513.462857 138.24c-62.902857 0-122.88 23.405714-168.228571 65.828571-51.2 46.811429-80.457143 114.102857-80.457143 182.857143s29.257143 136.045714 80.457143 182.857143c45.348571 42.422857 105.325714 65.828571 168.228571 65.828572s122.88-23.405714 168.228572-65.828572c51.2-46.811429 80.457143-114.102857 80.457142-182.857143s-29.257143-136.045714-80.457142-182.857143c-46.811429-42.422857-105.325714-65.828571-168.228572-65.828571z m0 475.428571c-57.051429 0-111.177143-21.942857-153.6-59.977142-46.811429-42.422857-73.142857-103.862857-73.142857-166.765715 0-62.902857 26.331429-124.342857 73.142857-166.765714 42.422857-38.034286 96.548571-59.977143 153.6-59.977143 57.051429 0 111.177143 21.942857 153.6 59.977143 46.811429 42.422857 73.142857 103.862857 73.142857 166.765714 0 62.902857-26.331429 124.342857-73.142857 166.765715-42.422857 38.034286-96.548571 59.977143-153.6 59.977142zM513.462857 138.24c-62.902857 0-122.88 23.405714-168.228571 65.828571l-8.777143 8.777143 8.777143 8.777143c45.348571 42.422857 105.325714 65.828571 168.228571 65.828572s122.88-23.405714 168.228572-65.828572l8.777142-8.777143-8.777142-8.777143c-46.811429-42.422857-105.325714-65.828571-168.228572-65.828571z m-144.822857 74.605714c40.96-33.645714 90.697143-51.2 143.36-51.2 52.662857 0 103.862857 17.554286 143.36 51.2-40.96 33.645714-90.697143 51.2-143.36 51.2-51.2 0-102.4-19.017143-143.36-51.2zM513.462857 487.862857c-62.902857 0-122.88 23.405714-168.228571 65.828572l-8.777143 8.777142 8.777143 8.777143c45.348571 42.422857 105.325714 65.828571 168.228571 65.828572s122.88-23.405714 168.228572-65.828572l8.777142-8.777143-8.777142-8.777142c-46.811429-42.422857-105.325714-65.828571-168.228572-65.828572z m-144.822857 74.605714c40.96-33.645714 90.697143-51.2 143.36-51.2 52.662857 0 103.862857 17.554286 143.36 51.2-40.96 33.645714-90.697143 51.2-143.36 51.2-51.2 0-102.4-19.017143-143.36-51.2zM513.462857 138.24c-74.605714 0-131.657143 109.714286-131.657143 248.685714s58.514286 248.685714 131.657143 248.685715c74.605714 0 131.657143-109.714286 131.657143-248.685715s-58.514286-248.685714-131.657143-248.685714z m0 475.428571c-59.977143 0-109.714286-103.862857-109.714286-226.742857s49.737143-226.742857 109.714286-226.742857 109.714286 103.862857 109.714286 226.742857-49.737143 226.742857-109.714286 226.742857zM276.48 398.628571h475.428571v-21.942857H276.48zM501.76 623.908571h21.942857v-475.428571h-21.942857z"  horiz-adv-x="1024" />

    
    <glyph glyph-name="fengkongtixi" unicode="&#58926;" d="M672.914286 97.28l-5.851429 8.777143c-46.811429 68.754286-29.257143 163.84 39.497143 210.651428 23.405714 16.091429 46.811429 23.405714 74.605714 26.331429l10.24 1.462857 13.165715-157.988571-131.657143-89.234286z m99.474285 223.817143c-19.017143-2.925714-36.571429-10.24-52.662857-20.48-55.588571-38.034286-73.142857-112.64-39.497143-171.154286l102.4 68.754286-10.24 122.88zM792.868571 40.228571c-23.405714 0-45.348571 4.388571-65.828571 14.628572-24.868571 11.702857-43.885714 27.794286-59.977143 51.2l-5.851428 8.777143 131.657142 89.234285L936.228571 135.314286l-4.388571-10.24c-27.794286-51.2-80.457143-84.845714-138.971429-84.845715z m-100.937142 70.217143c11.702857-14.628571 26.331429-26.331429 43.885714-35.108571 17.554286-8.777143 36.571429-13.165714 57.051428-13.165714 45.348571 0 89.234286 24.868571 112.64 64.365714L794.331429 179.2l-102.4-68.754286zM966.948571 148.48l-143.36 68.754286-11.702857 157.988571 10.24 1.462857c83.382857 5.851429 156.525714-57.051429 162.377143-140.434285 1.462857-27.794286-2.925714-52.662857-14.628571-77.531429l-2.925715-10.24z m-121.417142 83.382857l111.177142-54.125714c7.314286 17.554286 10.24 35.108571 8.777143 55.588571-4.388571 67.291429-61.44 119.954286-128.731428 119.954286l8.777143-121.417143zM833.828571-53.394286H194.56c-20.48 0-38.034286 16.091429-38.034286 38.034286v86.308571h21.942857v-86.308571c0-8.777143 7.314286-16.091429 16.091429-16.091429H833.828571c8.777143 0 16.091429 7.314286 16.091429 16.091429v84.845714h21.942857v-84.845714c0-20.48-17.554286-38.034286-38.034286-38.034286zM178.468571 138.24h-21.942857V776.045714c0 20.48 16.091429 38.034286 38.034286 38.034286H833.828571c20.48 0 38.034286-16.091429 38.034286-38.034286v-413.988571h-21.942857V776.045714c0 8.777143-7.314286 16.091429-16.091429 16.091429H194.56c-8.777143 0-16.091429-7.314286-16.091429-16.091429v-637.805714zM168.228571 723.382857h691.931429v-21.942857H168.228571zM340.845714 746.788571h-21.942857V768.731429h21.942857v-21.942858z m-51.2 0h-21.942857V768.731429h21.942857v-21.942858z m-51.2 0h-21.942857V768.731429h21.942857v-21.942858zM447.634286 57.782857L73.142857 59.245714c-24.868571 0-45.348571 20.48-45.348571 45.348572 0 24.868571 20.48 43.885714 45.348571 43.885714l374.491429-1.462857 89.234285-45.348572-89.234285-43.885714zM73.142857 126.537143c-13.165714 0-23.405714-10.24-23.405714-21.942857 0-13.165714 10.24-23.405714 23.405714-23.405715l368.64-1.462857 45.348572 21.942857-45.348572 23.405715L73.142857 126.537143zM101.288229 70.729143l0.087771 67.291428 21.942857-0.029257-0.087771-67.291428zM397.984914 68.871314l0.087772 67.291429 21.942857-0.029257-0.087772-67.291429zM288.182857 490.788571l-45.348571 45.348572 16.091428 16.091428 29.257143-30.72 87.771429 87.771429 14.628571-16.091429zM416.914286 549.302857h361.325714v-21.942857H416.914286zM288.182857 337.188571l-45.348571 45.348572 16.091428 14.628571 29.257143-29.257143 87.771429 87.771429 14.628571-16.091429zM416.914286 395.702857h258.925714v-21.942857H416.914286z"  horiz-adv-x="1024" />

    
    <glyph glyph-name="liuliangjishouxufei" unicode="&#58927;" d="M636.342857 426.422857c-11.702857 0-21.942857 4.388571-30.72 11.702857-8.777143 7.314286-13.165714 17.554286-13.165714 29.257143H614.4c0-4.388571 1.462857-8.777143 5.851429-11.702857 8.777143-7.314286 24.868571-7.314286 33.645714 0 4.388571 2.925714 5.851429 7.314286 5.851428 11.702857 0 4.388571-1.462857 8.777143-5.851428 11.702857-4.388571 4.388571-10.24 5.851429-16.091429 5.851429-11.702857 0-21.942857 4.388571-30.72 11.702857-8.777143 7.314286-13.165714 17.554286-13.165714 29.257143s4.388571 21.942857 13.165714 29.257143c16.091429 14.628571 45.348571 14.628571 61.44 0 8.777143-7.314286 13.165714-17.554286 13.165715-29.257143H658.285714c0 4.388571-1.462857 8.777143-5.851428 11.702857-8.777143 7.314286-24.868571 7.314286-33.645715 0-4.388571-2.925714-5.851429-7.314286-5.851428-11.702857 0-4.388571 1.462857-8.777143 5.851428-11.702857 4.388571-4.388571 10.24-5.851429 16.091429-5.851429 11.702857 0 21.942857-4.388571 30.72-11.702857 8.777143-7.314286 13.165714-17.554286 13.165714-29.257143s-4.388571-21.942857-13.165714-29.257143c-7.314286-7.314286-19.017143-11.702857-29.257143-11.702857zM624.64 584.411429h21.942857v-30.72h-21.942857zM624.64 438.125714h21.942857v-30.72h-21.942857zM962.56 296.228571H308.662857V695.588571h652.434286V296.228571z m-631.954286 21.942858h608.548572V673.645714H330.605714v-355.474285zM321.828571 673.645714l-2.925714 21.942857 577.828572 99.474286 19.017142-108.251428-21.942857-4.388572-14.628571 87.771429zM323.291429 675.108571l-7.314286 20.48L806.034286 863.817143l35.108571-90.697143-20.48-8.777143-26.331428 73.142857zM839.68 360.594286H431.542857v11.702857c0 26.331429-21.942857 46.811429-46.811428 46.811428h-11.702858V572.708571h11.702858c26.331429 0 46.811429 21.942857 46.811428 46.811429v11.702857h406.674286v-11.702857c0-26.331429 21.942857-46.811429 46.811428-46.811429h11.702858v-153.6h-11.702858c-26.331429 0-46.811429-21.942857-46.811428-46.811428v-11.702857zM453.485714 382.537143h364.251429c4.388571 29.257143 27.794286 52.662857 57.051428 57.051428v111.177143c-29.257143 4.388571-52.662857 27.794286-57.051428 57.051429H453.485714c-4.388571-29.257143-27.794286-52.662857-57.051428-57.051429v-111.177143c29.257143-4.388571 52.662857-27.794286 57.051428-57.051428zM447.634286 34.377143h-21.942857c0 29.257143 27.794286 42.422857 42.422857 45.348571h163.84v-21.942857h-160.914286c-4.388571-1.462857-23.405714-7.314286-23.405714-23.405714zM633.417143 133.851429h-138.971429l-105.325714 49.737142c-17.554286 8.777143-38.034286 13.165714-58.514286 13.165715h-87.771428v21.942857h87.771428c23.405714 0 46.811429-5.851429 67.291429-14.628572l100.937143-46.811428h133.12v-23.405714zM253.074286-63.634286H96.548571v21.942857h134.582858V231.862857H57.051429v21.942857h196.022857zM631.954286 57.782857v21.942857c14.628571 0 27.794286 11.702857 27.794285 27.794286s-11.702857 27.794286-27.794285 27.794286v21.942857c27.794286 0 49.737143-21.942857 49.737143-49.737143s-23.405714-49.737143-49.737143-49.737143zM533.942857-95.817143c-13.165714 0-26.331429 1.462857-38.034286 5.851429l-184.32 61.44h-68.754285v21.942857h74.605714L503.222857-69.485714c24.868571-8.777143 54.125714-5.851429 77.531429 5.851428l323.291428 168.228572c16.091429 7.314286 23.405714 24.868571 17.554286 40.96-2.925714 7.314286-8.777143 13.165714-16.091429 16.091428-7.314286 2.925714-16.091429 2.925714-23.405714 0L656.822857 62.171429l-8.777143 20.48 225.28 99.474285c13.165714 5.851429 27.794286 5.851429 40.96 0 13.165714-5.851429 23.405714-16.091429 29.257143-29.257143 11.702857-26.331429-1.462857-58.514286-27.794286-68.754285L593.92-84.114286c-20.48-7.314286-39.497143-11.702857-59.977143-11.702857zM196.022857-3.657143h-21.942857V18.285714h21.942857v-21.942857z m-46.811428 0H127.268571V18.285714h21.942858v-21.942857z"  horiz-adv-x="1024" />

    
    <glyph glyph-name="quanqiuhuaduoyuzhong" unicode="&#58928;" d="M332.068571-60.708571h354.011429v-21.942858H332.068571zM689.005714-82.651429H330.605714l-1.462857 1.462858c-52.662857 21.942857-100.937143 52.662857-143.36 90.697142C87.771429 100.205714 30.72 228.937143 30.72 362.057143c0 133.12 57.051429 261.851429 155.062857 352.548571 87.771429 81.92 203.337143 125.805714 324.754286 125.805715 119.954286 0 235.52-45.348571 324.754286-125.805715 98.011429-90.697143 155.062857-219.428571 155.062857-352.548571 0-133.12-57.051429-261.851429-155.062857-352.548572-42.422857-38.034286-89.234286-68.754286-143.36-90.697142l-2.925715-1.462858z m-354.011428 21.942858h349.622857c49.737143 20.48 95.085714 49.737143 134.582857 86.308571 93.622857 86.308571 147.748571 209.188571 147.748571 336.457143s-54.125714 250.148571-147.748571 336.457143c-84.845714 77.531429-194.56 119.954286-308.662857 119.954285-115.565714 0-225.28-42.422857-308.662857-119.954285-93.622857-86.308571-147.748571-209.188571-147.748572-336.457143s54.125714-250.148571 147.748572-336.457143c38.034286-36.571429 83.382857-65.828571 133.12-86.308571zM689.005714-82.651429H330.605714l-1.462857 1.462858c-52.662857 21.942857-100.937143 52.662857-143.36 90.697142l-8.777143 8.777143 8.777143 8.777143c87.771429 81.92 203.337143 125.805714 324.754286 125.805714 119.954286 0 235.52-45.348571 324.754286-125.805714l8.777142-8.777143-10.24-8.777143c-42.422857-38.034286-89.234286-68.754286-143.36-90.697142l-1.462857-1.462858z m-354.011428 21.942858h349.622857c45.348571 19.017143 87.771429 45.348571 125.805714 77.531428-83.382857 73.142857-188.708571 112.64-299.885714 112.64S292.571429 89.965714 210.651429 16.822857c36.571429-32.182857 78.994286-58.514286 124.342857-77.531428zM332.068571-60.708571h354.011429v-21.942858H332.068571zM510.537143 572.708571c-119.954286 0-235.52 45.348571-324.754286 125.805715l-8.777143 7.314285 8.777143 8.777143c87.771429 81.92 203.337143 125.805714 324.754286 125.805715 119.954286 0 235.52-45.348571 324.754286-125.805715l8.777142-8.777143-10.24-7.314285c-87.771429-81.92-203.337143-125.805714-323.291428-125.805715zM209.188571 705.828571c83.382857-73.142857 188.708571-112.64 299.885715-112.64S727.04 632.685714 808.96 705.828571c-83.382857 73.142857-188.708571 112.64-299.885714 112.64C399.36 818.468571 292.571429 778.971429 209.188571 705.828571zM604.16-82.651429H415.451429l-2.925715 2.925715c-92.16 74.605714-152.137143 247.222857-152.137143 441.782857 0 264.777143 111.177143 479.817143 248.685715 479.817143s248.685714-215.04 248.685714-479.817143c0-194.56-59.977143-367.177143-152.137143-441.782857l-1.462857-2.925715zM424.228571-60.708571h172.617143c86.308571 71.68 140.434286 236.982857 140.434286 422.765714 0 251.611429-102.4 457.874286-226.742857 457.874286-125.805714 0-226.742857-204.8-226.742857-457.874286-1.462857-185.782857 54.125714-351.085714 140.434285-422.765714zM419.84-60.708571H599.771429v-21.942858H419.84zM42.422857 372.297143h936.228572v-21.942857h-936.228572zM498.834286 830.171429h21.942857v-901.12h-21.942857zM127.268571-60.708571h766.537143v-21.942858H127.268571z"  horiz-adv-x="1024" />

    
    <glyph glyph-name="shangbizhishu" unicode="&#58929;" d="M950.857143 70.948571H73.142857l-40.96 57.051429V164.571429h958.171429v-36.571429L950.857143 70.948571zM84.845714 92.891429h854.308572l29.257143 40.96v7.314285H55.588571v-5.851428l29.257143-42.422857zM939.154286 142.628571H84.845714V648.777143c0 21.942857 17.554286 40.96 40.96 40.96h773.851429c21.942857 0 40.96-17.554286 40.96-40.96v-506.148572zM106.788571 164.571429h810.422858V648.777143c0 10.24-8.777143 19.017143-17.554286 19.017143h-775.314286c-10.24 0-17.554286-8.777143-17.554286-19.017143V164.571429zM634.88 230.4c-4.388571 0-8.777143 2.925714-10.24 7.314286l-52.662857 155.062857c-1.462857 4.388571 0 8.777143 2.925714 11.702857 2.925714 2.925714 7.314286 4.388571 11.702857 2.925714L740.205714 354.742857c4.388571-1.462857 7.314286-5.851429 7.314286-10.24 0-4.388571-2.925714-8.777143-7.314286-10.24l-70.217143-24.868571-24.868571-71.68c-1.462857-4.388571-5.851429-7.314286-10.24-7.314286zM599.771429 378.148571l35.108571-103.862857 16.091429 45.348572c1.462857 2.925714 2.925714 5.851429 5.851428 5.851428l45.348572 16.091429-102.4 36.571428zM735.817143 230.4c-2.925714 0-5.851429 1.462857-7.314286 2.925714l-74.605714 74.605715c-4.388571 4.388571-4.388571 11.702857 0 16.091428 4.388571 4.388571 11.702857 4.388571 16.091428 0l74.605715-74.605714c4.388571-4.388571 4.388571-11.702857 0-16.091429-2.925714-2.925714-5.851429-2.925714-8.777143-2.925714zM490.057143 357.668571c-13.165714 0-26.331429 4.388571-36.571429 13.165715-10.24 8.777143-16.091429 20.48-16.091428 33.645714h21.942857c0-5.851429 2.925714-11.702857 8.777143-16.091429 11.702857-10.24 32.182857-10.24 43.885714 0 5.851429 4.388571 8.777143 10.24 8.777143 16.091429 0 5.851429-2.925714 11.702857-8.777143 16.091429-5.851429 4.388571-13.165714 7.314286-21.942857 7.314285-13.165714 0-26.331429 4.388571-36.571429 13.165715-10.24 8.777143-16.091429 20.48-16.091428 33.645714 0 13.165714 5.851429 24.868571 16.091428 33.645714 19.017143 16.091429 52.662857 16.091429 71.68 0 10.24-8.777143 16.091429-20.48 16.091429-33.645714h-21.942857c0 5.851429-2.925714 11.702857-8.777143 16.091428-11.702857 10.24-32.182857 10.24-43.885714 0-5.851429-4.388571-8.777143-10.24-8.777143-16.091428 0-5.851429 2.925714-11.702857 8.777143-16.091429 5.851429-4.388571 13.165714-7.314286 21.942857-7.314285 13.165714 0 26.331429-4.388571 36.571428-13.165715 10.24-8.777143 16.091429-20.48 16.091429-33.645714 0-13.165714-5.851429-24.868571-16.091429-33.645714-8.777143-7.314286-21.942857-13.165714-35.108571-13.165715zM478.354286 546.377143h21.942857v-36.571429h-21.942857zM478.354286 369.371429h21.942857v-36.571429h-21.942857zM490.057143 280.137143c-87.771429 0-160.914286 71.68-160.914286 160.914286s71.68 160.914286 160.914286 160.914285c87.771429 0 160.914286-71.68 160.914286-160.914285 0-21.942857-4.388571-43.885714-13.165715-64.365715l-21.942857 7.314286c7.314286 17.554286 11.702857 36.571429 11.702857 55.588571 0 76.068571-61.44 138.971429-138.971428 138.971429-76.068571 0-138.971429-61.44-138.971429-138.971429s61.44-138.971429 138.971429-138.971428c39.497143 0 77.531429 17.554286 103.862857 46.811428l16.091428-14.628571c-29.257143-33.645714-73.142857-52.662857-118.491428-52.662857z"  horiz-adv-x="1024" />

    
    <glyph glyph-name="xianjinkxiantugongju" unicode="&#58930;" d="M990.354286-72.411429H827.977143V601.965714h162.377143v-674.377143z m-140.434286 21.942858h118.491429V580.022857h-118.491429v-630.491428zM791.405714-72.411429H629.028571V476.16h162.377143v-548.571429z m-140.434285 21.942858h118.491428V454.217143h-118.491428v-504.685714zM592.457143-72.411429H430.08V386.925714h162.377143v-459.337143z m-140.434286 21.942858H570.514286V364.982857h-118.491429v-415.451428zM393.508571-72.411429H231.131429V310.857143h162.377142v-383.268572z m-140.434285 21.942858h118.491428V288.914286h-118.491428v-339.382857zM194.56-72.411429H32.182857V211.382857h162.377143v-283.794286z m-140.434286 21.942858h118.491429V189.44H54.125714v-239.908571zM943.542857 730.697143H921.6V808.228571h-76.068571V830.171429h98.011428zM121.417143 275.748571l-16.091429 16.091429 193.097143 193.097143h207.725714l193.097143 193.097143H775.314286L924.525714 825.782857l16.091429-14.628571-155.062857-155.062857h-77.531429L516.388571 462.994286H308.662857z"  horiz-adv-x="1024" />

    
    <glyph glyph-name="zhuliujiagou" unicode="&#58931;" d="M245.76 571.245714c-13.165714 0-24.868571 4.388571-33.645714 11.702857-8.777143 8.777143-14.628571 19.017143-14.628572 30.72H219.428571c0-5.851429 2.925714-10.24 7.314286-14.628571 10.24-8.777143 27.794286-8.777143 38.034286 0 4.388571 4.388571 7.314286 8.777143 7.314286 14.628571s-2.925714 10.24-7.314286 14.628572c-4.388571 4.388571-11.702857 7.314286-19.017143 7.314286-13.165714 0-24.868571 4.388571-33.645714 11.702857-8.777143 8.777143-14.628571 19.017143-14.628572 30.72s5.851429 23.405714 14.628572 30.72c17.554286 16.091429 48.274286 16.091429 67.291428 0 8.777143-8.777143 14.628571-19.017143 14.628572-30.72h-21.942857c0 5.851429-2.925714 10.24-7.314286 14.628571-10.24 8.777143-27.794286 8.777143-38.034286 0-4.388571-4.388571-7.314286-8.777143-7.314286-14.628571s2.925714-10.24 7.314286-14.628572c4.388571-4.388571 11.702857-7.314286 19.017143-7.314285 13.165714 0 24.868571-4.388571 33.645714-11.702858 8.777143-8.777143 14.628571-19.017143 14.628572-30.72s-5.851429-23.405714-14.628572-30.72-20.48-11.702857-33.645714-11.702857zM234.057143 743.862857h21.942857v-33.645714H234.057143zM234.057143 582.948571h21.942857v-33.645714H234.057143zM498.834286 252.342857h21.942857v-270.628571h-21.942857zM500.779886 247.325257l18.139428 12.346514 183.530057-269.706971-18.139428-12.346514zM316.562286-10.708114l183.105828 269.984914 18.154057-12.317257-183.105828-269.984914zM659.748571-6.582857h65.828572v-21.942857h-65.828572zM296.96-6.582857h65.828571v-21.942857h-65.828571zM472.502857-6.582857h73.142857v-21.942857h-73.142857zM89.234286 786.285714h21.942857v-405.211428H89.234286zM912.822857 786.285714h21.942857v-405.211428h-21.942857zM43.885714 796.525714h936.228572v-21.942857H43.885714zM43.885714 391.314286h936.228572V369.371429H43.885714zM498.834286 379.611429h21.942857V252.342857h-21.942857zM846.994286 587.337143H716.8c-5.851429 0-11.702857 4.388571-11.702857 11.702857v124.342857c0 2.925714 1.462857 5.851429 2.925714 7.314286 2.925714 1.462857 5.851429 2.925714 8.777143 2.925714 73.142857-5.851429 131.657143-61.44 138.971429-134.582857 0-2.925714 0-5.851429-2.925715-8.777143 0-1.462857-2.925714-2.925714-5.851428-2.925714z m-118.491429 21.942857H833.828571c-10.24 52.662857-52.662857 92.16-105.325714 100.937143v-100.937143zM800.182857 467.382857c-2.925714 0-5.851429 1.462857-7.314286 2.925714l-78.994285 80.457143c-2.925714 2.925714-4.388571 7.314286-2.925715 11.702857 1.462857 4.388571 5.851429 7.314286 10.24 7.314286h124.342858c2.925714 0 5.851429-1.462857 8.777142-4.388571 1.462857-2.925714 2.925714-5.851429 2.925715-8.777143-5.851429-33.645714-23.405714-64.365714-48.274286-86.308572-2.925714-2.925714-5.851429-2.925714-8.777143-2.925714z m-52.662857 78.994286l52.662857-54.125714c14.628571 14.628571 24.868571 33.645714 30.72 54.125714h-83.382857zM708.022857 432.274286c-7.314286 0-16.091429 0-23.405714 1.462857-64.365714 10.24-117.028571 61.44-127.268572 127.268571-11.702857 80.457143 40.96 155.062857 119.954286 171.154286 5.851429 1.462857 11.702857-2.925714 13.165714-8.777143 1.462857-5.851429-2.925714-11.702857-8.777142-13.165714-67.291429-13.165714-112.64-77.531429-102.4-146.285714 8.777143-55.588571 52.662857-99.474286 108.251428-108.251429 26.331429-4.388571 54.125714 0 77.531429 11.702857 5.851429 2.925714 11.702857 0 14.628571-4.388571 2.925714-5.851429 0-11.702857-4.388571-14.628572-21.942857-11.702857-43.885714-16.091429-67.291429-16.091428zM152.137143 509.805714h260.388571v-21.942857H152.137143zM152.137143 448.365714h396.434286v-21.942857H152.137143z"  horiz-adv-x="1024" />

    


  </font>
</defs>
</svg>
